<?xml version="1.0" encoding="utf-8"?>
<svg version="1.1" id="Layer_1" xmlns="http://www.w3.org/2000/svg" x="0px" y="0px"
	 viewBox="0 0 688.4 300.5" style="enable-background:new 0 0 688.4 300.5;" xml:space="preserve">
<style type="text/css">
	.st0{fill-opacity:0.7;}
	#aicp_logo{fill:#fff;}
</style>
<title>Desktop HD</title>
<g id="aicp_logo" transform="translate(295.000000, 105.000000)">
	<polygon id="I" class="st0" points="-55,135 5,135 5,-105 -55,-105 	"/>
	<polygon id="P-I" class="st0" points="125,195 185,195 185,-45 125,-45 	"/>
	<path id="P" class="st0" d="M185-45c33,0,60,26.9,60,60s-26.9,60-60,60v60c66.3,0,120-53.7,120-120s-54-120-120-120V-45z"/>
	<path id="C" d="M125-45h60v-60h-60C58.7-105,5-51.3,5,15s53.7,120,120,120h60V75h-60c-33.1,0-60-26.9-60-60S91.9-45,125-45"/>
	<path id="A" d="M-175,75c-33.1,0-60-26.9-60-60s26.9-60,60-60s60,26.9,60,60S-141.9,75-175,75L-175,75z M-115-105v16.1
		c-17.7-10.2-38.1-16.1-60-16.1c-66.3,0-120,53.7-120,120s53.7,120,120,120c21.9,0,42.3-5.8,60-16.1V135h60v-240H-115z"/>
	<path id="C_1_" d="M-235.5,195.5c-4.5,0-7.7-0.2-9.8-0.7c-2.1-0.5-3.7-1.2-5-2.4c-1.4-1.2-2.5-2.9-3.1-4.9c-0.7-2-1-4.7-1-8.1
		v-11.9c0-3.6,0.3-6.5,1-8.7c0.7-2.1,1.7-3.8,3.1-5.1c1.3-1.1,3-1.9,5.1-2.4c2.1-0.5,5.3-0.7,9.6-0.7h13.7c7.1,0,11.9,0.9,14.4,2.7
		c2.5,1.8,3.8,5,3.8,9.7c0,0.6,0,1.1,0,1.4s0,0.6,0,0.9h-5v-0.6c0-3.4-0.7-5.8-2.2-7.1c-1.5-1.4-4.1-2-7.9-2h-18.9
		c-2.6,0-4.6,0.2-6,0.7c-1.4,0.5-2.6,1.3-3.4,2.4c-0.6,0.8-1,1.8-1.2,2.9c-0.2,1.1-0.4,3-0.4,5.6v0.8v10.8c0,2.6,0.1,4.5,0.4,5.6
		c0.2,1.1,0.6,2.1,1.2,2.9c0.8,1.1,1.9,1.9,3.4,2.4c1.4,0.5,3.4,0.7,6,0.7h18.8c4.1,0,6.9-0.7,8.4-2c1.5-1.3,2.3-3.7,2.3-7.2v-1.2h5
		c0,0.3,0,0.6,0,1.1c0,0.5,0,0.8,0,1c0,2.7-0.3,4.9-0.8,6.5c-0.5,1.6-1.4,3-2.7,4c-1.2,1-2.8,1.7-4.9,2.1c-2.1,0.4-5.5,0.6-10.3,0.6
		H-235.5z"/>
	<path id="U" d="M-175.7,195.5c-4.3,0-7.4-0.2-9.5-0.7c-2.1-0.5-3.7-1.2-5-2.4c-1.4-1.2-2.5-2.8-3.1-4.8c-0.6-2-1-4.7-1-8v-28.3h5.6
		v28.3c0,2.3,0.1,4,0.4,5c0.2,1,0.6,1.9,1.2,2.7c0.8,1.1,1.9,1.9,3.3,2.4c1.4,0.5,3.4,0.7,5.9,0.7h17.9c2.5,0,4.5-0.2,5.9-0.7
		c1.4-0.5,2.5-1.3,3.3-2.4c0.5-0.8,0.9-1.7,1.2-2.7c0.2-1,0.3-2.7,0.3-5v-1.5v-26.8h5.6v27.9c0,3.3-0.3,6.1-1,8.2
		c-0.6,2.1-1.7,3.8-3,5c-1.2,1.1-2.9,1.9-5,2.4c-2.1,0.5-5.2,0.7-9.6,0.7H-175.7z"/>
	<path id="S" d="M-134.3,180.8h5.2c0,0.2,0,0.5-0.1,0.8c0,0.8-0.1,1.4-0.1,1.7c0,2.7,0.9,4.6,2.7,5.7s5.2,1.6,10.1,1.6h11.4
		c5.9,0,9.8-0.6,11.6-1.8c1.8-1.2,2.7-3.4,2.7-6.7c0-2.8-0.6-4.6-1.9-5.7c-1.2-1-3.8-1.5-7.7-1.5h-18.4c-5.8,0-9.9-0.9-12.3-2.7
		c-2.4-1.8-3.5-4.9-3.5-9.3c0-4.5,1.3-7.6,4-9.4c2.7-1.8,7.6-2.7,14.8-2.7h9.9c5.4,0,9.2,0.2,11.4,0.6s3.9,1.1,5.1,2.1
		c1,0.9,1.7,2,2.2,3.4c0.5,1.4,0.7,3.1,0.7,5.3v1.3h-5.2v-0.7c0-2.9-0.7-4.8-2.1-5.8c-1.4-1-4.3-1.5-8.7-1.5h-14.9
		c-4.5,0-7.6,0.5-9.2,1.6c-1.6,1-2.4,2.9-2.4,5.7c0,2.8,0.8,4.7,2.3,5.8c1.5,1.1,4.7,1.6,9.6,1.6h15.7c3.4,0,6,0.1,7.7,0.4
		c1.7,0.3,3.1,0.7,4.1,1.3c1.5,0.9,2.6,2.1,3.2,3.7c0.6,1.6,1,3.9,1,6.9c0,4.8-1.3,8.2-3.9,10.1c-2.6,1.9-7.3,2.9-14.1,2.9h-14.8
		c-5.9,0-10-0.9-12.5-2.7s-3.7-4.7-3.7-8.8c0-0.5,0-1.5,0.1-2.8C-134.3,181.1-134.3,180.9-134.3,180.8"/>
	<polygon id="T" points="-53.1,195 -58.5,195 -58.5,156.2 -80.1,156.2 -80.1,151.4 -31.5,151.4 -31.5,156.2 -53.1,156.2 	"/>
	<path id="O" d="M11.8,155.7H-8c-2.8,0-5,0.2-6.5,0.7c-1.5,0.5-2.7,1.3-3.6,2.4c-0.6,0.8-1.1,1.8-1.3,2.9c-0.3,1.1-0.4,3-0.4,5.6
		v0.8v10.7c0,2.6,0.1,4.5,0.4,5.6c0.3,1.1,0.7,2.1,1.3,2.9c0.9,1.1,2.1,1.9,3.6,2.4c1.5,0.5,3.7,0.7,6.5,0.7h19.7
		c2.8,0,5-0.2,6.5-0.7c1.5-0.5,2.7-1.3,3.6-2.4c0.6-0.8,1-1.7,1.3-2.8c0.3-1.1,0.4-2.8,0.4-5.1V178v-11.3c0-2.3-0.1-4-0.4-5.1
		c-0.3-1.1-0.7-2-1.3-2.8c-0.9-1.1-2.1-1.9-3.6-2.4C16.8,155.9,14.6,155.7,11.8,155.7L11.8,155.7z M-5.3,195.5
		c-4.7,0-8.1-0.2-10.3-0.7c-2.2-0.5-4-1.2-5.5-2.4c-1.6-1.2-2.7-2.9-3.4-4.9c-0.7-2-1-4.7-1-8v-11.9c0-3.6,0.3-6.5,1-8.7
		c0.7-2.1,1.8-3.8,3.3-5.1c1.4-1.1,3.2-1.9,5.5-2.3c2.3-0.5,5.7-0.7,10.3-0.7H9.2c4.6,0,8,0.2,10.3,0.7c2.3,0.5,4.1,1.2,5.5,2.3
		c1.5,1.2,2.6,2.8,3.3,5c0.7,2.1,1.1,4.9,1.1,8.2v12.2c0,3.4-0.4,6.2-1.1,8.3c-0.7,2.1-1.8,3.8-3.3,5c-1.4,1.1-3.2,1.9-5.4,2.4
		c-2.2,0.5-5.7,0.7-10.4,0.7H-5.3z"/>
	<polygon id="M" points="44.3,195 39.1,195 39.1,151.4 46.9,151.4 73.1,189.3 99.3,151.4 107.3,151.4 107.3,195 102.1,195 
		102.1,156.6 75.2,195 71.2,195 44.3,156.6 	"/>
	<path id="R" d="M236.4,156.1h-27.5v16.7h27.5c3.9,0,6.5-0.5,7.8-1.5c1.3-1,1.9-2.9,1.9-5.9v-2.1c0-2.9-0.6-4.9-1.9-5.9
		C242.9,156.6,240.3,156.1,236.4,156.1L236.4,156.1z M208.9,195h-5.4v-43.6h31.1c6.9,0,11.5,0.7,13.8,2.2c2.3,1.5,3.4,4.2,3.4,8.2
		v5.2c0,2.7-0.6,4.7-1.7,5.9c-1.1,1.2-3.1,2.2-6,2.8c2.4,0.3,4.2,1.1,5.4,2.5c1.2,1.4,1.8,3.4,1.8,6V195h-5.4v-9.7
		c0-2.9-0.6-4.8-1.9-5.8c-1.2-1-4.1-1.6-8.7-1.6h-26.5V195z"/>
	<path id="O_1_" d="M297.8,155.7h-19.7c-2.8,0-5,0.2-6.5,0.7c-1.5,0.5-2.7,1.3-3.6,2.4c-0.6,0.8-1.1,1.8-1.3,2.9
		c-0.3,1.1-0.4,3-0.4,5.6v0.8v10.7c0,2.6,0.1,4.5,0.4,5.6c0.3,1.1,0.7,2.1,1.3,2.9c0.9,1.1,2.1,1.9,3.6,2.4c1.5,0.5,3.7,0.7,6.5,0.7
		h19.7c2.8,0,5-0.2,6.5-0.7c1.5-0.5,2.7-1.3,3.6-2.4c0.6-0.8,1-1.7,1.3-2.8c0.3-1.1,0.4-2.8,0.4-5.1V178v-11.3c0-2.3-0.1-4-0.4-5.1
		c-0.3-1.1-0.7-2-1.3-2.8c-0.9-1.1-2.1-1.9-3.6-2.4C302.8,155.9,300.6,155.7,297.8,155.7L297.8,155.7z M280.7,195.5
		c-4.7,0-8.1-0.2-10.3-0.7c-2.2-0.5-4-1.2-5.5-2.4c-1.6-1.2-2.7-2.9-3.4-4.9c-0.7-2-1-4.7-1-8v-11.9c0-3.6,0.3-6.5,1-8.7
		c0.7-2.1,1.8-3.8,3.3-5.1c1.4-1.1,3.2-1.9,5.5-2.3c2.3-0.5,5.7-0.7,10.3-0.7h14.6c4.6,0,8,0.2,10.3,0.7c2.3,0.5,4.1,1.2,5.5,2.3
		c1.5,1.2,2.6,2.8,3.3,5c0.7,2.1,1.1,4.9,1.1,8.2v12.2c0,3.4-0.4,6.2-1.1,8.3c-0.7,2.1-1.8,3.8-3.3,5c-1.4,1.1-3.2,1.9-5.4,2.4
		c-2.2,0.5-5.7,0.7-10.4,0.7H280.7z"/>
	<polygon id="M_1_" points="330.4,195 325.1,195 325.1,151.4 332.9,151.4 359.1,189.3 385.3,151.4 393.4,151.4 393.4,195 388.1,195 
		388.1,156.6 361.3,195 357.2,195 330.4,156.6 	"/>
</g>
</svg>
